<?xml version="1.0" standalone="no"?>
<!DOCTYPE svg PUBLIC "-//W3C//DTD SVG 20010904//EN"
 "http://www.w3.org/TR/2001/REC-SVG-20010904/DTD/svg10.dtd">
<svg version="1.0" xmlns="http://www.w3.org/2000/svg"
 width="260.000000pt" height="260.000000pt" viewBox="0 0 260.000000 260.000000"
 preserveAspectRatio="xMidYMid meet">
<metadata>
Created by potrace 1.11, written by Peter Selinger 2001-2013
</metadata>
<g transform="translate(0.000000,260.000000) scale(0.100000,-0.100000)"
fill="#000000" stroke="none">
<path d="M1512 2534 c-12 -8 -36 -42 -52 -74 -34 -67 -32 -66 -85 -75 l-40 -7
31 33 c16 19 37 43 45 53 18 25 8 19 -76 -42 -69 -51 -137 -87 -182 -96 -28
-6 -41 0 -115 55 -110 82 -169 109 -237 109 -52 0 -57 -2 -100 -47 -56 -59
-71 -100 -78 -223 -9 -150 38 -291 141 -427 76 -101 212 -193 284 -193 16 0
43 -17 78 -50 29 -27 58 -50 63 -50 20 0 11 -17 -16 -29 -85 -39 -244 -204
-329 -341 -21 -34 -44 -60 -53 -60 -9 0 -49 -16 -90 -35 -45 -22 -88 -35 -112
-35 -34 0 -39 -3 -45 -27 -6 -20 -2 -31 16 -45 12 -10 29 -18 37 -18 11 0 9
-5 -7 -18 -19 -15 -21 -22 -11 -39 16 -31 38 -35 106 -17 33 8 70 18 81 21 15
3 38 -8 78 -39 31 -23 56 -48 56 -54 0 -7 -8 -22 -18 -35 -27 -32 -92 -27
-205 17 -80 31 -100 35 -157 31 -65 -4 -159 -37 -180 -62 -10 -11 -5 -12 27
-3 21 6 74 11 118 12 74 1 88 -3 180 -43 55 -24 121 -46 148 -49 26 -2 47 -5
47 -6 -1 -18 -41 -234 -49 -263 -17 -62 -38 -79 -133 -107 -113 -34 -173 -78
-173 -126 0 -33 3 -35 60 -56 85 -32 85 -32 267 17 56 15 98 54 98 93 0 22 8
40 28 58 38 35 131 102 199 143 55 33 57 33 87 18 36 -18 148 -108 191 -153
20 -21 33 -48 40 -83 9 -46 14 -54 48 -70 90 -44 296 -48 338 -6 20 20 20 20
-2 50 -12 17 -53 46 -99 69 l-79 40 -26 82 c-14 45 -33 128 -42 184 l-17 103
28 50 c32 60 52 151 61 284 l7 97 42 -33 c22 -19 72 -58 110 -87 76 -57 87
-83 53 -126 -24 -31 -18 -56 16 -68 23 -8 34 -5 74 23 46 32 48 33 101 22 86
-17 156 -14 175 7 23 25 21 39 -5 53 -20 11 -20 13 -5 24 19 13 23 50 7 60 -6
4 -32 8 -59 11 -70 6 -154 48 -190 93 -17 21 -62 91 -102 157 -84 141 -156
244 -170 244 -25 0 -3 23 59 59 37 22 77 48 89 58 27 23 63 83 63 106 0 22 32
22 119 2 35 -9 66 -14 68 -11 6 5 -129 36 -160 36 -13 0 -34 11 -47 26 -21 21
-22 27 -10 34 8 5 19 10 24 10 5 0 7 2 4 5 -3 3 -17 0 -32 -6 -22 -10 -29 -9
-46 6 -25 23 -25 33 0 139 23 94 20 150 -11 204 -14 25 -16 38 -8 58 5 15 7
29 4 32 -3 3 -5 1 -5 -4 0 -5 -4 -15 -9 -23 -16 -25 -41 6 -42 53 -1 34 -2 37
-8 16 -14 -48 -71 -8 -71 50 0 91 -58 205 -126 247 -46 27 -53 28 -82 7z m78
-31 c14 -9 31 -24 38 -33 25 -29 60 -115 66 -164 5 -43 4 -47 -12 -41 -64 26
-162 56 -203 61 -96 13 -47 33 106 44 84 6 88 7 60 19 -16 7 -62 13 -102 14
-40 1 -73 5 -73 9 0 10 22 59 38 86 17 26 48 28 82 5z m-700 -54 c27 -12 107
-63 177 -115 70 -51 135 -94 143 -94 9 0 1 11 -18 26 l-33 27 43 24 c24 14 59
34 78 45 34 19 34 19 11 0 -14 -11 -26 -27 -27 -36 -2 -14 10 -16 84 -16 98 0
217 -25 306 -65 55 -24 57 -27 42 -44 -17 -19 -21 -41 -7 -41 5 0 11 7 15 15
6 16 33 20 55 6 19 -12 6 -46 -34 -85 -48 -48 -54 -103 -27 -235 12 -58 21
-105 19 -107 -7 -6 -97 -6 -125 1 -27 6 -31 11 -26 28 4 11 7 49 7 83 0 69
-31 148 -83 214 -28 36 -29 39 -15 66 15 30 19 82 9 122 -9 34 -26 26 -23 -10
4 -61 -1 -86 -21 -109 l-19 -24 -1 43 c0 26 4 41 10 37 6 -3 10 -2 10 4 0 6
-9 15 -20 21 -11 6 -20 17 -20 24 0 8 -8 20 -17 27 -15 13 -16 12 -11 -8 5
-21 2 -23 -28 -23 -23 0 -37 -6 -44 -19 -13 -25 -13 -118 0 -126 6 -4 10 12
10 42 0 63 9 75 51 71 32 -3 34 -5 31 -38 -2 -19 -12 -48 -24 -64 -29 -40 -21
-107 29 -233 l41 -103 -29 21 c-16 11 -34 19 -40 17 -6 -2 7 -16 30 -31 48
-32 55 -53 14 -42 -99 26 -217 45 -273 44 -57 -1 -60 -2 -30 -9 19 -5 81 -16
137 -24 110 -17 205 -45 210 -61 2 -6 -40 -10 -111 -11 -62 -1 -122 -6 -132
-12 -18 -11 -18 -11 4 -12 13 0 20 -4 17 -10 -3 -5 1 -10 9 -10 11 0 16 -10
16 -30 0 -17 7 -47 15 -67 19 -46 20 -43 -18 -43 -58 0 -145 80 -195 180 -34
69 -45 197 -18 219 26 22 19 29 -23 24 -21 -3 -47 0 -57 6 -17 9 -16 10 9 11
87 1 117 84 81 223 -20 76 -54 135 -104 181 -76 69 -158 96 -216 71 -45 -19
-42 0 6 33 41 28 87 28 150 1z m-23 -71 c96 -45 173 -187 173 -321 0 -82 -64
-123 -123 -77 -32 25 -36 25 -30 0 8 -29 70 -80 97 -80 23 0 23 -2 15 -39 -10
-47 2 -123 31 -188 l20 -45 -38 7 c-62 11 -131 56 -197 127 -131 141 -198 357
-165 528 6 33 18 53 45 77 54 47 91 49 172 11z m533 -38 c0 -5 -8 -10 -17 -10
-15 0 -16 2 -3 10 19 12 20 12 20 0z m395 -230 c-23 -26 -29 -20 -14 14 8 18
16 23 22 17 7 -7 4 -17 -8 -31z m-345 -15 c46 -24 89 -109 105 -210 l6 -40
-24 30 c-22 26 -27 28 -41 16 -13 -11 -16 -28 -14 -78 l3 -63 40 -1 c65 -2 90
-12 87 -36 -2 -15 9 -27 43 -47 49 -29 74 -25 95 14 13 24 13 26 -6 44 -14 15
-12 16 19 16 60 0 71 -67 17 -115 -16 -15 -38 -21 -84 -22 -33 -1 -81 -5 -106
-8 -33 -4 -54 -1 -80 12 -42 22 -53 53 -18 53 20 1 21 2 6 11 -10 5 -18 14
-18 19 0 5 8 7 18 4 11 -4 9 1 -7 14 -13 11 -25 28 -26 38 -1 11 -7 30 -13 44
-52 125 -71 184 -77 233 -11 83 12 104 75 72z m400 -21 c15 -39 12 -131 -7
-213 -16 -68 -16 -75 -1 -102 11 -18 13 -31 7 -35 -18 -11 -40 29 -34 61 17
97 17 181 -2 236 -17 51 -17 58 -4 67 24 16 31 14 41 -14z m-78 -21 c37 -43
49 -150 27 -239 -16 -63 -28 -63 -26 0 1 32 -4 61 -12 70 -13 15 -15 15 -31 1
-17 -15 -18 -13 -25 43 -12 108 23 175 67 125z m-64 -343 c-10 -6 -25 -7 -40
-1 -20 9 -18 10 17 10 31 0 36 -2 23 -9z m202 -5 c11 -13 7 -15 -24 -15 -35 0
-49 13 -23 23 22 9 34 7 47 -8z m-491 -41 c17 -4 28 -10 25 -15 -6 -11 -53
-11 -109 -2 -36 6 -38 7 -15 14 34 9 61 10 99 3z m501 -17 c0 -33 -59 -98
-120 -131 l-52 -28 15 28 c8 16 17 42 21 57 4 16 17 44 29 63 19 30 27 34 65
34 37 0 42 -3 42 -23z m-554 -28 c16 -5 23 -19 28 -51 8 -53 42 -114 78 -141
41 -31 69 -17 117 57 54 82 66 92 125 100 l48 6 -6 -32 c-3 -18 -13 -43 -22
-55 -20 -31 -74 -65 -96 -59 -9 2 -29 -9 -45 -26 -33 -35 -74 -58 -103 -58
-11 0 -41 19 -65 41 -25 23 -45 38 -45 33 0 -4 -16 7 -35 26 -35 34 -65 107
-65 158 0 21 3 23 33 17 17 -4 42 -11 53 -16z m-57 -165 c13 -9 29 -32 37 -50
14 -32 42 -50 30 -19 -8 22 4 18 48 -15 53 -40 94 -40 140 1 37 32 82 49 132
49 39 0 72 -41 194 -241 46 -74 93 -147 106 -164 35 -46 140 -95 203 -95 53 0
67 -14 37 -39 -11 -9 -21 -7 -48 9 -37 22 -48 25 -48 10 0 -5 12 -16 28 -25
l27 -16 -37 5 c-21 3 -38 1 -38 -4 0 -10 46 -25 105 -35 38 -6 39 -7 20 -22
-16 -11 -37 -14 -95 -9 -41 3 -86 8 -100 12 -19 4 -35 -2 -64 -25 -41 -33 -52
-36 -76 -21 -12 7 -12 11 3 28 23 25 36 125 16 117 -15 -6 -131 77 -190 136
-32 32 -36 43 -42 103 -4 37 -4 87 -1 110 4 27 2 46 -5 50 -7 5 -11 -2 -12
-16 0 -17 -5 -11 -18 22 -10 24 -23 46 -30 48 -14 5 -14 3 0 -37 10 -28 9 -34
-9 -47 -11 -7 -32 -34 -47 -59 -14 -26 -32 -44 -38 -42 -6 2 -22 24 -35 50
-26 49 -47 64 -68 47 -7 -6 -50 -80 -95 -163 -45 -84 -113 -201 -151 -262 -37
-60 -71 -124 -74 -143 -18 -94 24 -175 113 -218 56 -28 57 -28 28 -35 -51 -10
-129 -55 -233 -133 -92 -70 -147 -126 -122 -126 5 0 10 -9 10 -19 0 -27 -53
-56 -137 -75 -93 -21 -157 -21 -178 0 -23 24 -2 44 47 44 24 0 37 4 33 10 -3
6 -26 10 -50 10 -36 0 -48 -5 -61 -25 -19 -29 -29 -31 -39 -8 -11 30 52 77
142 107 44 15 87 24 95 21 29 -11 68 91 103 273 37 185 58 248 85 257 10 3 20
20 24 37 4 22 35 61 100 128 52 52 101 112 109 132 9 20 28 43 44 51 36 19 79
57 65 57 -17 0 -257 -127 -329 -174 -57 -36 -63 -44 -63 -74 0 -19 10 -51 21
-72 22 -39 20 -70 -4 -70 -7 0 -38 18 -67 40 -59 44 -74 47 -127 25 -19 -8
-55 -15 -80 -15 -61 0 -55 26 12 52 74 29 74 36 3 31 -45 -3 -68 -1 -82 10
-31 23 -10 37 57 37 34 0 69 5 77 10 13 8 12 10 -4 10 -32 0 -7 18 54 38 48
17 60 26 99 83 79 115 151 199 219 256 107 88 179 113 231 77z m182 -250 c15
-27 33 -50 41 -52 14 -3 38 22 81 82 10 14 22 26 26 26 20 0 31 -71 31 -199 0
-237 -32 -359 -117 -451 -102 -111 -196 -149 -298 -120 -80 22 -135 115 -120
199 4 20 46 104 94 186 49 83 105 184 126 225 58 116 86 161 99 157 6 -2 23
-26 37 -53z m-332 -126 c-25 -49 -204 -226 -215 -215 -4 3 -10 27 -15 53 -8
41 -6 48 14 65 23 19 206 118 220 119 4 0 2 -10 -4 -22z m-494 -349 c41 -18
95 -33 133 -36 53 -5 62 -8 62 -26 0 -18 -5 -19 -44 -14 -24 4 -91 25 -147 48
-85 35 -116 42 -169 42 -44 0 -57 3 -40 8 59 17 134 9 205 -22z m919 -171 c3
-13 12 -58 21 -101 8 -43 23 -104 32 -135 9 -31 16 -62 15 -68 -1 -5 30 -26
70 -45 80 -38 128 -74 128 -95 0 -24 -49 -16 -73 11 -23 27 -95 57 -111 47 -5
-3 13 -15 41 -27 53 -24 74 -51 47 -62 -24 -9 -144 4 -194 22 -54 19 -70 38
-70 82 0 29 -11 45 -72 105 -40 39 -95 85 -121 103 -47 32 -48 33 -22 39 14 4
23 11 20 16 -4 6 10 10 33 10 59 0 122 26 182 74 30 25 58 45 62 45 4 1 10 -9
12 -21z"/>
<path d="M1991 1779 c-18 -6 -31 -12 -29 -14 2 -3 24 1 49 9 49 16 33 20 -20
5z"/>
</g>
</svg>
